<svg xmlns="http://www.w3.org/2000/svg" viewBox="0 0 160 160">
  <defs>
    <style>
      .primary { fill: #CB187D; }
      .gray { fill: #6D6E71; }
      .accent { fill: #00897B; }
      .white { fill: #ffffff; }
    </style>
  </defs>
  <!-- Hexagon badge -->
  <polygon class="primary" points="80,8 144,44 144,116 80,152 16,116 16,44"/>
  <!-- Inner ring -->
  <polygon class="white" points="80,22 132,52 132,108 80,138 28,108 28,52"/>
  <!-- Stylized CA outline (abstract) -->
  <path class="gray" d="M57 55l24-8 14 10-6 14 10 10-6 20-20 10-12-8 2-12-8-10 2-16z"/>
  <!-- DART mark -->
  <g transform="translate(52,92)">
    <rect class="accent" x="0" y="0" width="8" height="22" rx="2"/>
    <rect class="accent" x="14" y="4" width="8" height="18" rx="2"/>
    <rect class="accent" x="28" y="8" width="8" height="14" rx="2"/>
    <rect class="accent" x="42" y="12" width="8" height="10" rx="2"/>
  </g>
</svg>
